<?xml version="1.0" encoding="UTF-8"?><svg id="_レイヤー_2" xmlns="http://www.w3.org/2000/svg" viewBox="0 0 1366 768"><defs><style>.cls-1{fill:#333;}</style></defs><path class="cls-1" d="M261.83,576.87c-24.19,14.54-48.06,29.6-71.6,45.17-11.7,7.74-23.32,15.61-34.85,23.61s-22.76,15.2-32.72,24.45c-10.21,9.49-18.44,21.66-19.79,35.83-.12,1.21,1.12,2.25,2.25,2.25,1.31,0,2.13-1.04,2.25-2.25,1.15-11.98,8.14-22.53,16.52-30.79,9.37-9.23,20.62-16.48,31.37-23.96,22.71-15.79,45.75-31.1,69.11-45.91,13.14-8.33,26.39-16.51,39.73-24.52,2.48-1.49.22-5.38-2.27-3.89h0Z"/><path class="cls-1" d="M105.62,707.59h379.91c2.9,0,2.9-4.5,0-4.5-49.39,0-98.78,0-148.17,0s-98.78,0-148.17,0h-83.58c-2.9,0-2.9,4.5,0,4.5h0Z"/><path class="cls-1" d="M487.66,704.76c3.08-12.33-3.55-24.43-12.45-32.56-4.67-4.26-9.95-7.78-15.26-11.19-6.08-3.9-12.17-7.79-18.25-11.68-24.35-15.59-48.7-31.18-73.06-46.76-13.72-8.78-27.43-17.56-41.15-26.34-2.45-1.57-4.71,2.33-2.27,3.89,23.93,15.32,47.86,30.64,71.8,45.96,11.9,7.61,23.79,15.23,35.69,22.84,5.95,3.81,11.9,7.61,17.84,11.42,5.41,3.46,10.92,6.82,16.09,10.63,9.99,7.38,20.02,19.23,16.67,32.59-.7,2.81,3.64,4.01,4.34,1.2h0Z"/><path class="cls-1" d="M100.3,452.06v253.79c0,2.9,4.5,2.9,4.5,0v-253.79c0-2.9-4.5-2.9-4.5,0h0Z"/><path class="cls-1" d="M104.09,453.8h382.98c2.9,0,2.9-4.5,0-4.5H104.09c-2.9,0-2.9,4.5,0,4.5h0Z"/><path class="cls-1" d="M484.81,451.04c0,32.53,0,65.06,0,97.58,0,32.53,0,65.06,0,97.58,0,18.35,0,36.7,0,55.05,0,2.9,4.5,2.9,4.5,0,0-32.53,0-65.06,0-97.58,0-32.53,0-65.06,0-97.58,0-18.35,0-36.7,0-55.05,0-2.9-4.5-2.9-4.5,0h0Z"/><path class="cls-1" d="M101.69,456.09c.78,13.94,13.23,22.72,23.56,30.14,13.86,9.95,27.71,19.89,41.57,29.84,13.48,9.68,26.92,19.43,40.71,28.66,13.74,9.19,27.91,17.62,42.4,25.56,14.59,7.99,29.32,15.72,44,23.55,1.89,1.01,3.78,2.02,5.67,3.02,2.55,1.36,4.83-2.52,2.27-3.89-14.58-7.77-29.2-15.48-43.73-23.34-14.32-7.73-28.45-15.78-42.09-24.66-13.58-8.83-26.75-18.27-39.9-27.71s-27.28-19.59-40.93-29.38c-5.93-4.25-12.09-8.31-17.62-13.09-4.53-3.92-8.94-8.6-10.67-14.47-.41-1.39-.66-2.78-.74-4.23-.16-2.88-4.66-2.9-4.5,0h0Z"/><path class="cls-1" d="M304.37,596.78c26.61-17.94,53.23-35.88,79.84-53.81,26.53-17.88,53.11-35.7,79.6-53.65,6.52-4.42,13.14-9.09,18.07-15.31s8.07-13.31,7.79-21.1c-.1-2.89-4.6-2.9-4.5,0,.5,14.08-11.27,24.02-21.81,31.28-12.85,8.84-25.87,17.46-38.81,26.18-26.06,17.57-52.13,35.13-78.19,52.7-14.76,9.94-29.51,19.89-44.27,29.83-2.39,1.61-.14,5.51,2.27,3.89h0Z"/><path class="cls-1" d="M489.01,452.39c38.12,6.13,74.33-9.58,109.13-22.9,32.15-12.31,67.98-23.47,102.06-11.85,15.06,5.13,27.96,14.98,36.26,28.62s11.6,28.72,9.71,43.91c-3.53,28.44-28.05,51.41-55.82,56.21s-55.48-12.92-66.38-39.03c-5.34-12.79-6.54-27.15-2.34-40.44,4.43-13.98,13.98-25.79,25.6-34.53,28.13-21.13,63.6-23.68,97.58-22.79,18.95.5,37.87,1.81,56.83,1.28,16.61-.47,33.18-2.12,49.56-4.84,32.74-5.44,64.7-15.35,94.87-29.17,30.02-13.75,58.21-31.49,83.54-52.68,6.3-5.27,12.4-10.76,18.33-16.44,2.09-2.01-1.09-5.19-3.18-3.18-25,23.99-53.43,44.23-84.16,60.21-30.58,15.9-63.37,27.52-97.14,34.43-17.08,3.49-34.39,5.76-51.79,6.75-19.07,1.08-38.09.19-57.16-.53-35.47-1.34-72.66-.81-103.58,18.95-12.41,7.93-23.34,18.68-29.88,32.01s-8.02,27.19-4.9,41.17c6.12,27.41,29.38,50.83,57.77,53.85,28.61,3.05,57.83-14.55,70.45-40.04,13.63-27.54,5.68-62.62-16.9-83.04-25.87-23.37-64.07-23.17-95.91-14.77-37.99,10.02-72.96,31.01-112.51,35.1-9.6.99-19.3.93-28.84-.61-2.83-.46-4.05,3.88-1.2,4.34h0Z"/><path class="cls-1" d="M1279.84,126.98c-43.89,8.17-88,15.14-132.15,21.75-44.03,6.59-88.09,12.95-132.14,19.39-24.76,3.62-49.52,7.24-74.28,10.87-1.86.27-2.23,3.35-.54,4.11,12.13,5.45,24.27,10.89,36.4,16.34s23.59,10.33,35.2,15.87c9.77,4.66,18.6,10.55,24.77,19.62,5.41,7.95,8.65,17.1,10.77,26.43,2.5,11.01,3.47,22.28,4.23,33.52.16,2.37,3.94,3.25,4.42.6,1.88-10.36,4-22.83,13.56-29.02,4-2.59,8.97-3.98,13.61-2.42s7.41,5.66,9.54,9.7c2.38,4.52,4.13,9.33,6.58,13.81,2.65,4.85,5.86,9.4,9.49,13.57,3.69,4.25,7.87,8.04,12.39,11.38s9.61,6.37,15.15,7.81c5.43,1.41,11.27,1.09,16.1-1.96s7.76-7.55,10.8-11.97c7.74-11.28,15.48-22.56,23.22-33.84,15.54-22.65,31.09-45.31,46.63-67.96,15.54-22.65,31.09-45.31,46.63-67.96l5.81-8.46c1.64-2.39-2.26-4.65-3.89-2.27-15.61,22.75-31.22,45.49-46.83,68.24-15.54,22.65-31.09,45.31-46.63,67.96-7.8,11.37-15.61,22.75-23.41,34.12-3.41,4.97-6.57,10.4-10.67,14.84s-8.86,6.36-14.63,5.35-10.74-3.98-15.35-7.3c-4.54-3.27-8.68-7.14-12.33-11.37-3.6-4.17-6.7-8.78-9.26-13.66-2.34-4.48-4.04-9.26-6.51-13.67-2.4-4.27-5.66-8.18-10.25-10.15s-9.69-1.67-14.23.17c-10.68,4.32-15.7,14.78-18.18,25.41-.66,2.81-1.18,5.64-1.69,8.48l4.42.6c-1.35-19.96-3.18-41.32-13.54-58.93-5.43-9.23-13.17-16.36-22.54-21.5-5.45-3-11.19-5.45-16.86-7.99-6.22-2.79-12.45-5.59-18.67-8.38-14-6.29-28-12.57-42.01-18.86l-.54,4.11c44.34-6.49,88.69-12.97,133.03-19.46,43.98-6.43,87.97-12.78,131.85-19.84,24.61-3.96,49.19-8.15,73.7-12.71,2.84-.53,1.64-4.87-1.2-4.34h0Z"/><path class="cls-1" d="M1024.73,223.22c17.73-.48,35.29-3.72,52.31-8.62,17.11-4.92,33.71-11.44,50.07-18.42s34.04-14.98,51.04-22.53,34.99-15.54,52.48-23.32c17.57-7.81,35.15-15.62,52.72-23.42,2.17-.96,4.33-1.93,6.5-2.89,1.11-.49,1.37-2.11.81-3.08-.67-1.14-1.96-1.3-3.08-.81-17.41,7.74-34.83,15.47-52.24,23.21-17.41,7.74-34.83,15.47-52.24,23.21s-33.99,15.2-51.06,22.63c-16.2,7.05-32.58,13.75-49.45,19.04-16.67,5.22-33.85,9.06-51.31,10.19-2.18.14-4.37.24-6.56.3-2.89.08-2.9,4.58,0,4.5h0Z"/><path class="cls-1" d="M1081.92,259.18c27.37-17.76,54.74-35.52,82.1-53.27s54.74-35.52,82.1-53.27c15.36-9.97,30.72-19.93,46.08-29.9,2.42-1.57.17-5.47-2.27-3.89-27.37,17.76-54.74,35.52-82.1,53.27-27.37,17.76-54.74,35.52-82.1,53.27-15.36,9.97-30.72,19.93-46.08,29.9-2.42,1.57-.17,5.47,2.27,3.89h0Z"/></svg>