<?xml version="1.0" encoding="UTF-8"?><svg id="_レイヤー_2" xmlns="http://www.w3.org/2000/svg" viewBox="0 0 859.91 447.32"><defs><style>.cls-1{fill:#333;}</style></defs><path class="cls-1" d="M134.1,332.78c-16.64,10-33.07,20.37-49.26,31.09-8.13,5.38-16.2,10.86-24.21,16.42-7.46,5.18-15.23,10.2-21.87,16.43s-12.32,14.68-13.26,24.24c-.19,1.97,2.88,1.95,3.07,0,1.74-17.69,19.48-28.19,32.61-37.33,15.54-10.81,31.32-21.3,47.31-31.44,8.98-5.7,18.04-11.28,27.15-16.76,1.69-1.02.15-3.68-1.55-2.65h0Z"/><path class="cls-1" d="M27.37,422.09h259.56c1.98,0,1.98-3.07,0-3.07H27.37c-1.98,0-1.98,3.07,0,3.07h0Z"/><path class="cls-1" d="M288.38,420.15c2.02-8.24-2.21-16.33-8.11-21.88-3.14-2.96-6.74-5.38-10.36-7.72-4.12-2.66-8.25-5.29-12.38-7.93-16.74-10.71-33.47-21.43-50.21-32.14-9.45-6.05-18.91-12.1-28.36-18.16-1.67-1.07-3.21,1.59-1.55,2.65,16.25,10.4,32.49,20.8,48.74,31.2,8.12,5.2,16.25,10.4,24.37,15.6,4.06,2.6,8.12,5.2,12.19,7.8,3.65,2.34,7.36,4.6,10.87,7.15,7.02,5.1,14.15,13.23,11.84,22.6-.47,1.92,2.49,2.74,2.96.82h0Z"/><path class="cls-1" d="M23.74,247.51v173.39c0,1.98,3.07,1.98,3.07,0v-173.39c0-1.98-3.07-1.98-3.07,0h0Z"/><path class="cls-1" d="M26.32,248.7h261.65c1.98,0,1.98-3.07,0-3.07H26.32c-1.98,0-1.98,3.07,0,3.07h0Z"/><path class="cls-1" d="M286.44,246.81v66.73c0,22.24,0,44.49,0,66.73,0,12.5,0,24.99,0,37.49,0,1.98,3.07,1.98,3.07,0,0-22.24,0-44.49,0-66.73s0-44.49,0-66.73,0-24.99,0-37.49c0-1.98-3.07-1.98-3.07,0h0Z"/><path class="cls-1" d="M24.69,250.26c.56,9.3,8.65,15.24,15.58,20.22,9.47,6.8,18.93,13.59,28.4,20.39,9.26,6.65,18.49,13.35,27.96,19.7,9.37,6.28,19.04,12.06,28.93,17.49,11.38,6.24,22.88,12.27,34.33,18.37,1.75.93,3.3-1.72,1.55-2.65-19.75-10.52-39.87-20.58-58.64-32.8-9.23-6.01-18.19-12.42-27.14-18.85s-18.51-13.29-27.76-19.93c-4.5-3.23-9.23-6.28-13.32-10.03-3.44-3.16-6.53-7.07-6.83-11.91-.12-1.97-3.19-1.98-3.07,0h0Z"/><path class="cls-1" d="M163.16,346.38c18.22-12.28,36.45-24.56,54.67-36.85,18.22-12.28,36.5-24.49,54.67-36.85,8.41-5.72,17.62-13.4,17.27-24.6-.06-1.97-3.14-1.98-3.07,0,.31,9.68-7.75,16.46-15.01,21.44-8.75,6.01-17.6,11.88-26.41,17.81-17.81,12-35.62,24.01-53.43,36.01-10.08,6.79-20.16,13.59-30.24,20.38-1.63,1.1-.1,3.76,1.55,2.65h0Z"/><path class="cls-1" d="M289.3,247.73c26.04,4.19,50.78-6.54,74.56-15.64,21.97-8.41,46.44-16.03,69.73-8.1,10.29,3.51,19.1,10.24,24.77,19.55s7.92,19.62,6.63,30c-2.41,19.43-19.17,35.12-38.13,38.4-19.53,3.38-37.9-8.83-45.35-26.67-3.65-8.74-4.47-18.55-1.6-27.63,3.02-9.55,9.55-17.62,17.49-23.59,19.22-14.44,43.45-16.18,66.66-15.57,12.94.34,25.87,1.24,38.83.87,11.35-.32,22.67-1.45,33.86-3.31,22.37-3.72,44.2-10.49,64.81-19.93s39.77-21.51,57.08-35.99c4.3-3.6,8.47-7.35,12.52-11.23,1.43-1.37-.75-3.54-2.17-2.17-17.08,16.39-36.5,30.22-57.5,41.13-20.89,10.86-43.3,18.8-66.37,23.52-11.67,2.39-23.5,3.94-35.39,4.61-13.03.74-26.03.13-39.05-.36-24.24-.91-49.64-.55-70.76,12.95-8.48,5.42-15.95,12.76-20.42,21.87-4.31,8.78-5.48,18.58-3.35,28.13,4.18,18.73,20.08,34.73,39.47,36.79,19.55,2.08,39.51-9.94,48.13-27.35,9.31-18.82,3.88-42.78-11.55-56.73-17.67-15.97-43.77-15.83-65.52-10.09-25.95,6.85-49.84,21.19-76.87,23.98-6.56.68-13.19.63-19.7-.41-1.94-.31-2.77,2.65-.82,2.96h0Z"/><path class="cls-1" d="M829.6,25.41c-29.95,5.58-60.04,10.33-90.17,14.84-30.07,4.5-60.16,8.84-90.24,13.24-16.97,2.48-33.94,4.97-50.91,7.45-1.27.19-1.53,2.29-.37,2.81,8.28,3.72,16.56,7.43,24.84,11.15s16.24,7.1,24.23,10.92c6.61,3.17,12.58,7.17,16.76,13.31,3.72,5.46,5.94,11.75,7.39,18.16,1.7,7.5,2.36,15.17,2.88,22.83.11,1.62,2.69,2.22,3.02.41,1.3-7.18,2.79-15.79,9.5-19.98,2.74-1.71,6.19-2.6,9.31-1.42s4.96,4,6.39,6.77c1.63,3.15,2.85,6.48,4.58,9.58,1.84,3.29,4.05,6.37,6.54,9.19s5.31,5.35,8.35,7.58,6.59,4.33,10.39,5.27,7.79.64,11.07-1.56c3.1-2.08,5.2-5.22,7.28-8.24,5.31-7.75,10.63-15.49,15.94-23.24,10.58-15.42,21.17-30.84,31.75-46.27s21.17-30.84,31.75-46.27c1.32-1.92,2.63-3.84,3.95-5.76,1.12-1.64-1.54-3.17-2.65-1.55-10.63,15.49-21.26,30.98-31.89,46.47s-21.26,30.98-31.89,46.47c-5.31,7.75-10.63,15.49-15.94,23.24-2.37,3.46-4.56,7.23-7.41,10.32-2.64,2.86-5.99,4.32-9.91,3.67s-7.39-2.71-10.55-4.99-5.95-4.89-8.46-7.8-4.66-6.13-6.43-9.54c-1.57-3.04-2.72-6.28-4.41-9.25-1.6-2.81-3.76-5.41-6.77-6.74-3.16-1.4-6.75-1.23-9.92.06-7.28,2.96-10.7,10.11-12.39,17.35-.45,1.91-.8,3.85-1.15,5.78l3.02.41c-.92-13.59-2.16-28.12-9.17-40.13-3.7-6.35-9-11.26-15.42-14.8-3.73-2.06-7.66-3.73-11.55-5.48-4.25-1.91-8.51-3.82-12.76-5.73-9.57-4.3-19.15-8.59-28.72-12.89l-.37,2.81c30.32-4.43,60.64-8.87,90.95-13.3,30-4.39,60.02-8.72,89.96-13.53,16.84-2.71,33.65-5.57,50.41-8.7,1.94-.36,1.12-3.33-.82-2.96h0Z"/><path class="cls-1" d="M655.32,91.16c24.36-.68,47.55-8.93,69.74-18.38,23.75-10.11,47.24-20.88,70.83-31.36,13.52-6.01,27.05-12.02,40.57-18.02,1.8-.8.24-3.45-1.55-2.65-23.86,10.6-47.71,21.2-71.57,31.8-11.57,5.14-23.12,10.34-34.73,15.39s-22.22,9.38-33.72,12.98c-12.84,4.03-26.09,6.8-39.57,7.18-1.97.06-1.98,3.13,0,3.07h0Z"/><path class="cls-1" d="M694.38,115.73l56.13-36.42c18.64-12.09,37.28-24.19,55.92-36.28,10.54-6.84,21.08-13.68,31.62-20.52,1.65-1.07.11-3.74-1.55-2.65-18.71,12.14-37.42,24.28-56.13,36.42-18.64,12.09-37.28,24.19-55.92,36.28-10.54,6.84-21.08,13.68-31.62,20.52-1.65,1.07-.11,3.74,1.55,2.65h0Z"/></svg>