<?xml version="1.0" encoding="UTF-8"?>
<svg id="_レイヤー_2" data-name="レイヤー 2" xmlns="http://www.w3.org/2000/svg" width="1195.66" height="590.88" viewBox="0 0 1195.66 590.88">
  <g id="_レイヤー_2-2" data-name="レイヤー 2">
    <path d="M161.53,459.57c-24.19,14.54-48.06,29.6-71.6,45.17-11.7,7.74-23.32,15.61-34.85,23.61s-22.76,15.2-32.72,24.45c-10.21,9.49-18.44,21.66-19.79,35.83-.12,1.21,1.12,2.25,2.25,2.25,1.31,0,2.13-1.04,2.25-2.25,1.15-11.98,8.14-22.53,16.52-30.79,9.37-9.23,20.62-16.48,31.37-23.96,22.71-15.79,45.75-31.1,69.11-45.91,13.14-8.33,26.39-16.51,39.73-24.52,2.48-1.49.22-5.38-2.27-3.89h0Z" fill="#333"/>
    <path d="M5.31,590.29h379.91c2.9,0,2.9-4.5,0-4.5H5.31c-2.9,0-2.9,4.5,0,4.5h0Z" fill="#333"/>
    <path d="M387.35,587.46c3.08-12.33-3.55-24.43-12.45-32.56-4.67-4.26-9.95-7.78-15.26-11.19-6.08-3.9-12.17-7.79-18.25-11.68-24.35-15.59-48.7-31.18-73.06-46.76-13.72-8.78-27.43-17.56-41.15-26.34-2.45-1.57-4.71,2.33-2.27,3.89,23.93,15.32,47.86,30.64,71.8,45.96,11.9,7.61,23.79,15.23,35.69,22.84,5.95,3.81,11.9,7.61,17.84,11.42,5.41,3.46,10.92,6.82,16.09,10.63,9.99,7.38,20.02,19.23,16.67,32.59-.7,2.81,3.64,4.01,4.34,1.2h0Z" fill="#333"/>
    <path d="M0,334.76v253.79c0,2.9,4.5,2.9,4.5,0v-253.79c0-2.9-4.5-2.9-4.5,0h0Z" fill="#333"/>
    <path d="M3.78,336.5h382.98c2.9,0,2.9-4.5,0-4.5H3.78c-2.9,0-2.9,4.5,0,4.5h0Z" fill="#333"/>
    <path d="M384.51,333.74c0,32.53,0,65.06,0,97.58s0,65.06,0,97.58c0,18.35,0,36.7,0,55.05,0,2.9,4.5,2.9,4.5,0,0-32.53,0-65.06,0-97.58,0-32.53,0-65.06,0-97.58,0-18.35,0-36.7,0-55.05,0-2.9-4.5-2.9-4.5,0h0Z" fill="#333"/>
    <path d="M1.39,338.79c.78,13.94,13.23,22.72,23.56,30.14,13.86,9.95,27.71,19.89,41.57,29.84,13.48,9.68,26.92,19.43,40.71,28.66,13.74,9.19,27.91,17.62,42.4,25.56,14.59,7.99,29.32,15.72,44,23.55,1.89,1.01,3.78,2.02,5.67,3.02,2.55,1.36,4.83-2.52,2.27-3.89-14.58-7.77-29.2-15.48-43.73-23.34-14.32-7.73-28.45-15.78-42.09-24.66-13.58-8.83-26.75-18.27-39.9-27.71-13.64-9.79-27.28-19.59-40.93-29.38-5.93-4.25-12.09-8.31-17.62-13.09-4.53-3.92-8.94-8.6-10.67-14.47-.41-1.39-.66-2.78-.74-4.23-.16-2.88-4.66-2.9-4.5,0h0Z" fill="#333"/>
    <path d="M204.07,479.48c26.61-17.94,53.23-35.88,79.84-53.81,26.53-17.88,53.11-35.7,79.6-53.65,6.52-4.42,13.14-9.09,18.07-15.31s8.07-13.31,7.79-21.1c-.1-2.89-4.6-2.9-4.5,0,.5,14.08-11.27,24.02-21.81,31.28-12.85,8.84-25.87,17.46-38.81,26.18-26.06,17.57-52.13,35.13-78.19,52.7-14.76,9.94-29.51,19.89-44.27,29.83-2.39,1.61-.14,5.51,2.27,3.89h0Z" fill="#333"/>
    <path d="M388.7,335.09c38.12,6.13,74.33-9.58,109.13-22.9,32.15-12.31,67.98-23.47,102.06-11.85,15.06,5.13,27.96,14.98,36.26,28.62s11.6,28.72,9.71,43.91c-3.53,28.44-28.05,51.41-55.82,56.21-28.59,4.94-55.48-12.92-66.38-39.03-5.34-12.79-6.54-27.15-2.34-40.44,4.43-13.98,13.98-25.79,25.6-34.53,28.13-21.13,63.6-23.68,97.58-22.79,18.95.5,37.87,1.81,56.83,1.28,16.61-.47,33.18-2.12,49.56-4.84,32.74-5.44,64.7-15.35,94.87-29.17s58.21-31.49,83.54-52.68c6.3-5.27,12.4-10.76,18.33-16.44,2.09-2.01-1.09-5.19-3.18-3.18-25,23.99-53.43,44.23-84.16,60.21-30.58,15.9-63.37,27.52-97.14,34.43-17.08,3.49-34.39,5.76-51.79,6.75-19.07,1.08-38.09.19-57.16-.53-35.47-1.34-72.66-.81-103.58,18.95-12.41,7.93-23.34,18.68-29.88,32.01-6.31,12.86-8.02,27.19-4.9,41.17,6.12,27.41,29.38,50.83,57.77,53.85,28.61,3.05,57.83-14.55,70.45-40.04,13.63-27.54,5.68-62.62-16.9-83.04-25.87-23.37-64.07-23.17-95.91-14.77-37.99,10.02-72.96,31.01-112.51,35.1-9.6.99-19.3.93-28.84-.61-2.83-.46-4.05,3.88-1.2,4.34h0Z" fill="#333"/>
    <path d="M924.43,105.92c17.73-.48,35.29-3.72,52.31-8.62,17.11-4.92,33.71-11.44,50.07-18.42s34.04-14.98,51.04-22.53,34.99-15.54,52.48-23.32,35.15-15.62,52.72-23.42c2.17-.96,4.33-1.93,6.5-2.89,1.11-.49,1.37-2.11.81-3.08-.67-1.14-1.96-1.3-3.08-.81-17.41,7.74-34.83,15.47-52.24,23.21-17.41,7.74-34.83,15.47-52.24,23.21s-33.99,15.2-51.06,22.63-32.58,13.75-49.45,19.04-33.85,9.06-51.31,10.19c-2.18.14-4.37.24-6.56.3-2.89.08-2.9,4.58,0,4.5h0Z" fill="#333"/>
    <path d="M981.62,141.88c27.37-17.76,54.74-35.52,82.1-53.27,27.37-17.76,54.74-35.52,82.1-53.27,15.36-9.97,30.72-19.93,46.08-29.9,2.42-1.57.17-5.47-2.27-3.89-27.37,17.76-54.74,35.52-82.1,53.27-27.37,17.76-54.74,35.52-82.1,53.27-15.36,9.97-30.72,19.93-46.08,29.9-2.42,1.57-.17,5.47,2.27,3.89h0Z" fill="#333"/>
    <path d="M1191.43.3c-45.88,9.24-91.88,17.88-137.99,25.91s-92.32,15.46-138.62,22.28c-26.09,3.84-52.21,7.49-78.36,10.95-2.42.32-3.17,3.57-.6,4.42,22.93,7.59,46.14,15.29,66.86,27.96,19.17,11.72,35.88,28.25,44.51,49.31,4.64,11.33,6.63,23.56,5.06,35.75-.34,2.66,3.62,2.82,4.42.6,2.67-7.46,5.46-15.36,11.31-20.98,5.26-5.06,12.57-7.41,19.47-4.35s11.49,9.06,15.86,14.63c5.82,7.44,11.63,14.9,17.44,22.35,6.54,8.38,13.08,16.76,19.62,25.14.97,1.24,2.8.59,3.53-.46,19.41-27.66,39.17-55.06,59.02-82.39,19.77-27.23,39.63-54.4,59.28-81.72,11.08-15.41,22.1-30.87,33-46.41,1.67-2.38-2.23-4.63-3.89-2.27-19.41,27.66-39.17,55.06-59.02,82.39-19.77,27.23-39.63,54.4-59.28,81.72-11.08,15.41-22.1,30.87-33,46.41l3.53-.46c-12.47-15.97-24.88-31.98-37.4-47.91-4.77-6.07-10.15-12.32-17.45-15.34s-15.56-1.29-21.83,3.68c-7.78,6.16-11.32,15.74-14.56,24.78l4.42.6c2.93-22.77-6.37-45.12-20.64-62.49-15.5-18.86-37.05-31.22-59.29-40.52-13.02-5.44-26.42-9.9-39.81-14.33l-.6,4.42c46.6-6.16,93.12-12.92,139.54-20.29,46.45-7.38,92.81-15.38,139.05-23.98,25.9-4.82,51.76-9.83,77.58-15.03,2.84-.57,1.64-4.91-1.2-4.34h0Z" fill="#333"/>
  </g>
</svg>